<svg width="200" height="200" viewBox="0 0 800 800" fill="none" xmlns="http://www.w3.org/2000/svg">
<path fill-rule="evenodd" clip-rule="evenodd" d="M32 50C29.7909 50 28 51.7909 28 54V552C28 554.209 29.7909 556 32 556H144V746C144 748.209 145.791 750 148 750H440C442.209 750 444 748.209 444 746V624H769C771.209 624 773 622.209 773 620V208C773 205.791 771.209 204 769 204H534V54C534 51.7909 532.209 50 530 50H32ZM444 579H724C726.209 579 728 577.209 728 575V253C728 250.791 726.209 249 724 249H534V552C534 554.209 532.209 556 530 556H444V579ZM414 556V579H402C399.791 579 398 577.209 398 575V556H414ZM444 493H467C469.209 493 471 491.209 471 489V249H402C399.791 249 398 250.791 398 253V450H440C442.209 450 444 451.791 444 454V493ZM398 480H410C412.209 480 414 481.791 414 484V493H398V480ZM353 450V208C353 205.791 354.791 204 357 204H471V117C471 114.791 469.209 113 467 113H416C413.791 113 412 114.791 412 117V142C412 144.209 410.209 146 408 146H278C275.791 146 274 144.209 274 142V117C274 114.791 272.209 113 270 113H95C92.7909 113 91 114.791 91 117V489C91 491.209 92.7909 493 95 493H144V454C144 451.791 145.791 450 148 450H353ZM174 493V484C174 481.791 175.791 480 178 480H353V493H174ZM174 556H353V620C353 622.209 354.791 624 357 624H414V716C414 718.209 412.209 720 410 720H178C175.791 720 174 718.209 174 716V556ZM724 84C726.209 84 728 85.7909 728 88V170C728 172.209 726.209 174 724 174H582C579.791 174 578 172.209 578 170V88C578 85.7909 579.791 84 582 84H724ZM689 119C691.209 119 693 120.791 693 123V135C693 137.209 691.209 139 689 139H617C614.791 139 613 137.209 613 135V123C613 120.791 614.791 119 617 119H689Z" fill="url(#paint0_linear_1_2)"/>
<path d="M144 556H148V552H144V556ZM444 624V620H440V624H444ZM534 204H530V208H534V204ZM444 579H440V583H444V579ZM534 249V245H530V249H534ZM444 556V552H440V556H444ZM414 579V583H418V579H414ZM414 556H418V552H414V556ZM398 556V552H394V556H398ZM444 493H440V497H444V493ZM471 249H475V245H471V249ZM398 450H394V454H398V450ZM398 480V476H394V480H398ZM414 493V497H418V493H414ZM398 493H394V497H398V493ZM353 450V454H357V450H353ZM471 204V208H475V204H471ZM144 493V497H148V493H144ZM174 493H170V497H174V493ZM353 480H357V476H353V480ZM353 493V497H357V493H353ZM353 556H357V552H353V556ZM174 556V552H170V556H174ZM414 624H418V620H414V624ZM32 54H32V46C27.5817 46 24 49.5817 24 54H32ZM32 552V54H24V552H32ZM32 552H24C24 556.418 27.5817 560 32 560V552ZM144 552H32V560H144V552ZM140 556V746H148V556H140ZM140 746C140 750.418 143.582 754 148 754V746H140ZM148 754H440V746H148V754ZM440 754C444.418 754 448 750.418 448 746H440V754ZM448 746V624H440V746H448ZM769 620H444V628H769V620ZM769 620V628C773.418 628 777 624.418 777 620H769ZM769 208V620H777V208H769ZM769 208H777C777 203.582 773.418 200 769 200V208ZM534 208H769V200H534V208ZM530 54V204H538V54H530ZM530 54V54H538C538 49.5817 534.418 46 530 46V54ZM32 54H530V46H32V54ZM444 583H724V575H444V583ZM724 583C728.418 583 732 579.418 732 575H724V583ZM732 575V253H724V575H732ZM732 253C732 248.582 728.418 245 724 245V253H732ZM724 245H534V253H724V245ZM530 249V552H538V249H530ZM530 552V560C534.418 560 538 556.418 538 552H530ZM530 552H444V560H530V552ZM448 579V556H440V579H448ZM418 579V556H410V579H418ZM402 583H414V575H402V583ZM394 575C394 579.418 397.582 583 402 583V575H394ZM394 556V575H402V556H394ZM414 552H398V560H414V552ZM467 489H444V497H467V489ZM467 489V497C471.418 497 475 493.418 475 489H467ZM467 249V489H475V249H467ZM402 253H471V245H402V253ZM402 253V245C397.582 245 394 248.582 394 253H402ZM402 450V253H394V450H402ZM440 446H398V454H440V446ZM448 454C448 449.582 444.418 446 440 446V454H448ZM448 493V454H440V493H448ZM410 476H398V484H410V476ZM418 484C418 479.582 414.418 476 410 476V484H418ZM418 493V484H410V493H418ZM414 489H398V497H414V489ZM402 493V480H394V493H402ZM349 208V450H357V208H349ZM357 200C352.582 200 349 203.582 349 208H357V200ZM471 200H357V208H471V200ZM467 117V204H475V117H467ZM467 117V117H475C475 112.582 471.418 109 467 109V117ZM416 117H467V109H416V117ZM416 117V109C411.582 109 408 112.582 408 117H416ZM416 142V117H408V142H416ZM408 150C412.418 150 416 146.418 416 142H408V150ZM278 150H408V142H278V150ZM270 142C270 146.418 273.582 150 278 150V142H270ZM270 117V142H278V117H270ZM270 117H278C278 112.582 274.418 109 270 109V117ZM95 117H270V109H95V117ZM95 117V109C90.5817 109 87 112.582 87 117H95ZM95 489V117H87V489H95ZM95 489H87C87 493.418 90.5817 497 95 497V489ZM144 489H95V497H144V489ZM140 454V493H148V454H140ZM148 446C143.582 446 140 449.582 140 454H148V446ZM353 446H148V454H353V446ZM170 484V493H178V484H170ZM178 476C173.582 476 170 479.582 170 484H178V476ZM353 476H178V484H353V476ZM349 480V493H357V480H349ZM353 489H174V497H353V489ZM353 552H174V560H353V552ZM357 620V556H349V620H357ZM357 620H349C349 624.418 352.582 628 357 628V620ZM414 620H357V628H414V620ZM418 716V624H410V716H418ZM410 724C414.418 724 418 720.418 418 716H410V724ZM178 724H410V716H178V724ZM170 716C170 720.418 173.582 724 178 724V716H170ZM170 556V716H178V556H170ZM732 88C732 83.5817 728.418 80 724 80V88H732ZM732 170V88H724V170H732ZM724 178C728.418 178 732 174.418 732 170H724V178ZM582 178H724V170H582V178ZM574 170C574 174.418 577.582 178 582 178V170H574ZM574 88V170H582V88H574ZM582 80C577.582 80 574 83.5817 574 88H582V80ZM724 80H582V88H724V80ZM697 123C697 118.582 693.418 115 689 115V123H697ZM697 135V123H689V135H697ZM689 143C693.418 143 697 139.418 697 135H689V143ZM617 143H689V135H617V143ZM609 135C609 139.418 612.582 143 617 143V135H609ZM609 123V135H617V123H609ZM617 115C612.582 115 609 118.582 609 123H617V115ZM689 115H617V123H689V115Z" fill="#BEDCD4"/>
<defs>
<linearGradient id="paint0_linear_1_2" x1="28" y1="50" x2="773" y2="750" gradientUnits="userSpaceOnUse">
<stop stop-color="#BDDED7"/>
<stop offset="1" stop-color="#D8EDE6"/>
</linearGradient>
</defs>
</svg>
